<?xml version="1.0" encoding="UTF-8" standalone="no"?>
<!DOCTYPE svg PUBLIC "-//W3C//DTD SVG 20010904//EN" "http://www.w3.org/TR/2001/REC-SVG-20010904/DTD/svg10.dtd">
<svg version="1.0" xmlns="http://www.w3.org/2000/svg" width="800.000000pt" height="350.000000pt" viewBox="0 0 800.000000 350.000000" preserveAspectRatio="xMidYMid meet">

<g transform="translate(0.000000,350.000000) scale(0.100000,-0.100000)" fill="#eceff4" stroke="none">
<path d="M1883 3058 c-4 -7 -218 -359 -475 -783 l-468 -770 0 -222 0 -223 505 0 505 0 0 -285 0 -285 250 0 250 0 0 285 0 285 145 0 145 0 0 200 0 200 -145 0 -145 0 0 805 0 805 -279 0 c-213 0 -282 -3 -288 -12z m67 -1073 l0 -525 -316 0 c-175 0 -314 4 -312 9 5 13 623 1041 625 1041 2 0 3 -236 3 -525z"/>
<path d="M3725 3060 c-190 -25 -347 -100 -457 -218 -204 -218 -298 -568 -298 -1107 0 -768 197 -1167 636 -1287 115 -31 382 -31 499 0 218 59 378 188 479 388 128 252 187 669 157 1114 -21 308 -65 498 -157 689 -50 102 -65 124 -147 206 -66 65 -112 101 -162 127 -157 81 -358 113 -550 88z m277 -443 c169 -98 226 -358 215 -964 -5 -301 -18 -426 -58 -558 -53 -176 -147 -255 -304 -255 -207 0 -297 125 -347 480 -19 142 -16 710 5 857 42 291 101 403 242 460 18 8 64 12 116 10 72 -3 93 -7 131 -30z"/>
<path d="M5903 3058 c-4 -7 -218 -359 -475 -783 l-468 -770 0 -222 0 -223 505 0 505 0 0 -285 0 -285 250 0 250 0 0 285 0 285 145 0 145 0 0 200 0 200 -145 0 -145 0 0 805 0 805 -279 0 c-213 0 -282 -3 -288 -12z m67 -1073 l0 -525 -316 0 c-175 0 -314 4 -312 9 5 13 623 1041 625 1041 2 0 3 -236 3 -525z"/>
</g>
</svg>