<?xml version="1.0" encoding="UTF-8" standalone="no"?>
<!DOCTYPE svg PUBLIC "-//W3C//DTD SVG 20010904//EN" "http://www.w3.org/TR/2001/REC-SVG-20010904/DTD/svg10.dtd">
<svg version="1.0" xmlns="http://www.w3.org/2000/svg" width="980.000000pt" height="981.000000pt" viewBox="0 0 980.000000 981.000000" preserveAspectRatio="xMidYMid meet">

<g transform="translate(0.000000,981.000000) scale(0.100000,-0.100000)" fill="#eceff4" stroke="none">
<path d="M4665 9803 c-687 -40 -1293 -194 -1880 -477 -515 -249 -947 -557 -1355 -966 -744 -744 -1230 -1714 -1379 -2750 -37 -258 -46 -382 -46 -695 0 -315 9 -453 46 -705 131 -911 524 -1774 1132 -2489 200 -235 526 -539 792 -738 496 -372 1113 -668 1703 -818 381 -96 703 -140 1107 -151 1095 -31 2168 313 3055 980 362 272 715 628 985 991 498 669 817 1444 929 2260 33 234 41 368 41 665 0 456 -40 786 -147 1205 -272 1073 -916 2038 -1813 2714 -673 508 -1481 836 -2315 940 -282 35 -612 49 -855 34z m35 -1650 l0 -1236 -157 7 c-567 24 -1134 111 -1648 252 -71 20 -131 37 -133 39 -5 5 82 243 144 393 377 905 921 1517 1532 1722 93 31 199 57 240 59 l22 1 0 -1237z m570 1200 c571 -163 1085 -672 1470 -1458 90 -184 180 -400 244 -582 l35 -102 -67 -20 c-233 -69 -634 -153 -932 -195 -278 -39 -694 -76 -867 -76 l-53 0 0 1235 0 1235 43 -6 c23 -4 80 -18 127 -31z m1325 -279 c154 -62 437 -203 588 -293 401 -239 771 -546 1085 -898 l73 -81 -92 -57 c-143 -89 -296 -170 -456 -244 -145 -67 -374 -161 -391 -161 -5 0 -37 75 -71 166 -242 648 -528 1134 -915 1556 l-107 117 83 -28 c46 -16 137 -50 203 -77z m-3234 -11 c-386 -414 -727 -1004 -947 -1638 -15 -44 -28 -81 -29 -82 -2 -4 -217 84 -331 135 -178 79 -383 189 -531 284 l-63 40 63 71 c453 513 1012 918 1628 1178 99 42 292 116 307 119 2 0 -42 -48 -97 -107z m-2014 -1646 c229 -143 504 -281 779 -393 76 -31 140 -57 141 -58 1 0 -19 -82 -43 -181 -86 -346 -156 -769 -189 -1135 -15 -171 -34 -528 -35 -642 l0 -58 -801 0 -801 0 7 128 c38 752 228 1415 583 2042 65 115 227 370 236 370 2 0 57 -33 123 -73z m7307 -40 c446 -683 689 -1420 736 -2228 5 -96 10 -180 10 -186 0 -10 -170 -13 -815 -13 l-815 0 0 138 c0 491 -88 1174 -220 1703 -22 89 -38 164 -37 166 2 2 64 27 138 57 293 118 571 257 799 402 63 39 119 73 123 73 4 1 41 -50 81 -112z m-5880 -576 c529 -154 1174 -256 1748 -277 l178 -7 0 -784 0 -783 -1147 0 -1146 0 6 238 c12 476 77 981 187 1456 22 94 40 174 40 178 0 14 29 9 134 -21z m4384 -72 c124 -512 212 -1202 212 -1670 l0 -109 -1135 0 -1135 0 0 783 0 784 168 7 c571 23 1218 123 1712 265 74 22 139 38 145 37 5 -2 20 -45 33 -97z m-5148 -2201 c0 -132 47 -596 86 -848 39 -254 127 -675 169 -811 4 -12 -7 -21 -42 -34 -272 -101 -648 -287 -896 -443 -54 -34 -100 -62 -103 -62 -3 0 -42 57 -88 128 -332 510 -552 1060 -660 1652 -22 120 -56 376 -56 423 0 16 45 17 795 17 l795 0 0 -22z m2690 -601 l0 -624 -167 -7 c-433 -17 -924 -80 -1335 -171 -140 -31 -497 -124 -540 -140 -16 -6 -25 28 -84 298 -79 363 -124 705 -158 1195 l-5 72 1145 0 1144 0 0 -623z m2656 506 c-17 -304 -62 -671 -116 -957 -33 -180 -99 -468 -108 -478 -4 -4 -45 4 -92 18 -267 78 -677 164 -990 208 -287 41 -692 76 -871 76 l-79 0 0 625 0 625 1131 0 1132 0 -7 -117z m2019 45 c-58 -610 -258 -1245 -560 -1773 -69 -122 -231 -375 -239 -375 -2 0 -57 33 -123 74 -241 150 -512 286 -802 402 -74 30 -136 56 -138 58 -2 2 12 66 31 142 110 441 191 970 211 1389 4 72 8 136 10 143 4 9 174 12 811 12 l806 0 -7 -72z m-4675 -2814 l0 -1236 -46 7 c-75 11 -192 44 -289 81 -592 229 -1132 869 -1490 1769 -56 141 -117 316 -113 321 11 10 413 111 579 144 398 81 927 143 1267 149 l92 1 0 -1236z m670 1226 c548 -34 1153 -133 1582 -261 l67 -20 -46 -132 c-87 -251 -233 -575 -358 -793 -376 -655 -838 -1072 -1345 -1217 -47 -13 -104 -27 -127 -31 l-43 -6 0 1235 0 1235 53 0 c28 0 126 -5 217 -10z m2210 -477 c283 -116 755 -368 748 -399 -6 -26 -257 -290 -387 -409 -165 -149 -222 -196 -371 -307 -358 -266 -770 -487 -1163 -624 l-98 -34 107 118 c385 420 676 914 912 1545 78 208 47 195 252 110z m-5151 -60 c239 -657 575 -1227 960 -1627 42 -43 67 -76 56 -72 -521 185 -971 437 -1390 780 -191 155 -573 536 -583 580 -7 29 439 268 708 381 74 31 144 60 155 65 45 20 50 14 94 -107z"/>
</g>
</svg>