<?xml version="1.0" encoding="UTF-8" standalone="no"?>
<svg data-name="Layer 1" id="Layer_1" viewBox="0 0 60 60" version="1.1" sodipodi:docname="Q-nord-6.svg" inkscape:version="1.3 (0e150ed6c4, 2023-07-21)" xmlns:inkscape="http://www.inkscape.org/namespaces/inkscape" xmlns:sodipodi="http://sodipodi.sourceforge.net/DTD/sodipodi-0.dtd" xmlns="http://www.w3.org/2000/svg" xmlns:svg="http://www.w3.org/2000/svg">
  <sodipodi:namedview id="namedview2" pagecolor="#eceff4" bordercolor="#eceff4" borderopacity="1" inkscape:showpageshadow="0" inkscape:pageopacity="0" inkscape:pagecheckerboard="1" inkscape:deskcolor="#eceff4" inkscape:zoom="14.342483" inkscape:cx="29.946001" inkscape:cy="31.619352" inkscape:window-width="2560" inkscape:window-height="1423" inkscape:window-x="0" inkscape:window-y="17" inkscape:window-maximized="1" inkscape:current-layer="Layer_1"/>
  <defs id="defs1">
    <style id="style1">.cls-1,.cls-4{fill:none;}.cls-1{clip-rule:evenodd;}.cls-2{clip-path:url(#clip-path);}.cls-3{fill:#eceff4;}.cls-4{stroke:#eceff4;stroke-miterlimit:10;stroke-width:2px;}</style>
    <clipPath id="clip-path">
      <path class="cls-1" d="M43.06,31.75A15.09,15.09,0,0,1,39.92,40a14.9,14.9,0,0,0-11.74-4.8v4.75A8.34,8.34,0,0,1,34,44.26a9.07,9.07,0,0,1-5.55,0,12.26,12.26,0,0,1-7.28-6.46,17,17,0,0,1-1.94-8c0-2.66-.12-5.33.06-8,0.31-4.59,2-8.58,5.65-11.47a10,10,0,0,1,13.59.86,15,15,0,0,1,4.56,9.94A91.42,91.42,0,0,1,43.06,31.75Zm11.35-8a24,24,0,0,0-17.58-21A23.29,23.29,0,0,0,10.35,14.68,24.51,24.51,0,0,0,7.55,24.8a5.69,5.69,0,0,1-.11.65v1.72c0.12,1,.23,2.06.37,3.08a23.93,23.93,0,0,0,19.1,20A23,23,0,0,0,36,50a0.61,0.61,0,0,1,.81.36,9.9,9.9,0,0,0,4.51,4.52,24.53,24.53,0,0,0,3.33,1c0.19,0.05.38,0.08,0.57,0.12h1.57l2.61-.39c0-1.31,0-2.59,0-3.87A0.69,0.69,0,0,0,49,51.36a10.85,10.85,0,0,1-4.2-2.43,17.86,17.86,0,0,1-1.39-1.75c1.42-1.2,2.8-2.2,4-3.41A24.23,24.23,0,0,0,54.41,23.77Z" id="path1"/>
    </clipPath>
  </defs>
  <title id="title1"/>
  <path class="cls-4" d="M43.06,31.75A15.09,15.09,0,0,1,39.92,40a14.9,14.9,0,0,0-11.74-4.8v4.75A8.34,8.34,0,0,1,34,44.26a9.07,9.07,0,0,1-5.55,0,12.26,12.26,0,0,1-7.28-6.46,17,17,0,0,1-1.94-8c0-2.66-.12-5.33.06-8,0.31-4.59,2-8.58,5.65-11.47a10,10,0,0,1,13.59.86,15,15,0,0,1,4.56,9.94A91.43,91.43,0,0,1,43.06,31.75Zm11.35-8a24,24,0,0,0-17.58-21A23.29,23.29,0,0,0,10.35,14.68,24.51,24.51,0,0,0,7.55,24.8a5.71,5.71,0,0,1-.11.65v1.72c0.12,1,.23,2.06.37,3.08a23.93,23.93,0,0,0,19.1,20A23,23,0,0,0,36,50a0.61,0.61,0,0,1,.81.36,9.9,9.9,0,0,0,4.51,4.52,24.52,24.52,0,0,0,3.33,1c0.19,0.05.38,0.08,0.57,0.12h1.57l2.61-.39c0-1.31,0-2.59,0-3.87A0.69,0.69,0,0,0,49,51.36a10.85,10.85,0,0,1-4.2-2.43,17.87,17.87,0,0,1-1.39-1.75c1.42-1.2,2.8-2.2,4-3.41A24.23,24.23,0,0,0,54.41,23.77Z" id="path2"/>
  <path style="fill:#eceff4;stroke-width:0.0697229" d="M 44.552956,56.895415 C 41.771588,56.19599 40.792416,55.825003 39.551629,55.00052 38.407444,54.240229 37.070658,52.814539 36.336983,51.572081 l -0.323419,-0.5477 -0.645771,0.122801 c -0.355174,0.06754 -0.771272,0.142174 -0.924662,0.165853 -0.153391,0.02368 -0.482832,0.0761 -0.732091,0.116492 -0.610768,0.09897 -4.488273,0.139918 -5.22922,0.05522 -2.91759,-0.333521 -5.63363,-1.165284 -8.401614,-2.57292 C 15.14908,46.404139 10.994321,42.038381 8.781844,37.039673 8.6080254,36.64696 8.4364007,36.262899 8.4004558,36.186204 8.1657943,35.685509 7.5870898,33.909051 7.3329372,32.909226 6.6728762,30.312575 6.2763768,26.42176 6.516656,24.899127 6.5536625,24.66462 6.6171871,24.080559 6.657822,23.601214 7.0205293,19.322572 8.7499356,14.757073 11.411797,11.051085 12.32827,9.7751229 13.584027,8.3844188 14.854051,7.2389163 18.731733,3.7414291 23.908029,1.514462 29.120917,1.1009678 c 0.866562,-0.068737 2.901299,-0.068549 3.875365,3.578e-4 0.641137,0.045355 2.712397,0.3394803 2.980753,0.4232761 0.03835,0.011974 0.195224,0.045722 0.348615,0.074996 0.507228,0.096801 2.20541,0.5974724 2.719194,0.8016943 0.0767,0.030485 0.453129,0.1772353 0.836519,0.326111 0.80518,0.3126624 2.905057,1.3558812 3.499312,1.7384581 1.931519,1.2434956 3.068032,2.1080831 4.257087,3.2385235 2.55259,2.4267604 4.471088,5.1700544 5.826832,8.3318904 1.420855,3.313689 2.088544,6.707935 2.077872,10.563025 -0.0109,3.938949 -0.798201,7.408851 -2.473855,10.903176 -1.730883,3.609495 -4.047059,6.439435 -7.591826,9.275811 -0.373889,0.299172 -0.679798,0.559794 -0.679798,0.579161 0,0.05292 0.711437,0.87382 0.871536,1.005631 0.0767,0.06314 0.233572,0.197034 0.348615,0.297535 0.37339,0.326189 1.139735,0.811991 1.762102,1.117035 0.546808,0.268008 0.806073,0.37648 1.615675,0.675969 0.323287,0.11959 0.679754,0.442866 0.844568,0.76593 0.126521,0.248001 0.135339,0.428174 0.135339,2.765437 v 2.500152 l -1.760505,0.258643 c -1.906959,0.28016 -3.337821,0.333583 -4.061361,0.151635 z m 3.050379,-2.034546 0.819244,-0.115838 v -1.273103 -1.273103 l -0.366045,-0.118912 c -0.796761,-0.258831 -2.100601,-0.963458 -2.874841,-1.553634 -1.055177,-0.804325 -1.610133,-1.400287 -2.571029,-2.761003 -0.431576,-0.611151 -0.520269,-0.778372 -0.448292,-0.845207 0.04935,-0.04583 0.905486,-0.752716 1.902524,-1.570866 3.422651,-2.808563 5.127202,-4.794176 6.81854,-7.942848 0.788046,-1.467059 1.642141,-3.680768 1.963741,-5.089774 0.01313,-0.05752 0.07164,-0.292836 0.130013,-0.522922 0.326003,-1.284885 0.546697,-3.167186 0.568148,-4.845744 0.05449,-4.264276 -0.800374,-8.088022 -2.579785,-11.539146 C 48.965545,11.5298 46.009118,8.3796037 42.276161,6.1498556 37.977819,3.5823959 33.238355,2.5944104 28.168066,3.2088924 c -0.49004,0.059389 -2.086391,0.3724649 -2.544887,0.4991021 -0.210912,0.058254 -0.540353,0.1453282 -0.732091,0.1934978 -0.832799,0.2092209 -2.562283,0.8812036 -3.597831,1.39792 -2.471542,1.2332464 -4.18659,2.4685666 -6.093657,4.3891573 -2.29885,2.3151514 -4.062543,5.1345494 -5.2793192,8.4393934 -0.5331894,1.448178 -0.969332,3.211899 -1.2053113,4.874171 -0.2816413,1.983921 -0.3105807,4.32543 -0.071663,5.79831 0.012875,0.07938 0.04498,0.361754 0.071343,0.627507 0.1768095,1.782308 0.773882,4.103217 1.5323415,5.956439 1.508141,3.684994 3.661451,6.571613 6.945064,9.310205 0.26279,0.219171 1.592451,1.164369 1.981752,1.40874 1.946588,1.221909 3.963718,2.123769 6.031034,2.696478 0.364302,0.100922 0.756493,0.211913 0.871536,0.246647 0.459626,0.138769 1.684833,0.340996 2.754056,0.45457 0.210912,0.0224 0.916857,0.05209 1.568766,0.06596 1.67512,0.03565 3.303315,-0.108205 4.810883,-0.425057 0.99887,-0.209937 1.258736,-0.214874 1.653335,-0.03141 0.457903,0.212897 0.572752,0.338157 0.991479,1.081347 0.515543,0.915025 0.959259,1.501666 1.619752,2.14149 1.057351,1.024262 1.846717,1.508365 3.160927,1.938536 1.74563,0.571386 2.318218,0.693605 3.276978,0.699475 0.479345,0.0029 1.240196,-0.04679 1.690781,-0.110503 z" id="path3"/>
  <path style="fill:#eceff4;stroke-width:0.0697229" d="m 30.080638,45.633792 c -1.149675,-0.13294 -2.599703,-0.59907 -3.864814,-1.242394 -1.921747,-0.97723 -3.550684,-2.407009 -4.860051,-4.265848 -0.388101,-0.550965 -0.510343,-0.766531 -1.067535,-1.882519 -0.831202,-1.664796 -1.154252,-2.513566 -1.525894,-4.009069 -0.2315,-0.931567 -0.377014,-1.838253 -0.49235,-3.067809 -0.05893,-0.628221 -0.07038,-8.197463 -0.01356,-8.959398 0.04708,-0.631326 0.06083,-0.782613 0.152041,-1.67335 0.15461,-1.50989 0.69247,-3.544324 1.334754,-5.048651 1.571149,-3.679874 4.785327,-6.7845101 8.149357,-7.8716204 2.685032,-0.8676873 5.733445,-0.6536407 8.198301,0.5756499 1.774369,0.8849254 3.32157,2.2305505 4.774181,4.1521765 1.522669,2.014305 2.472849,4.168339 2.986989,6.771428 0.132995,0.673351 0.24341,1.894485 0.311316,3.442982 0.05372,1.224941 0.03489,7.103166 -0.02512,7.84383 -0.01553,0.191738 -0.04765,0.693744 -0.07137,1.115567 -0.0816,1.451112 -0.271847,2.538995 -0.691754,3.95563 -0.56882,1.919021 -1.539088,3.729312 -2.96216,5.52669 -0.212531,0.268433 -0.393625,0.499238 -0.40243,0.5129 -0.0088,0.01366 -0.384888,-0.357435 -0.83574,-0.824659 -0.960762,-0.995652 -1.630326,-1.568077 -2.565618,-2.193403 -2.002973,-1.339167 -4.423012,-2.142027 -6.925984,-2.297729 l -0.506835,-0.03153 0.01877,1.500832 0.01877,1.500832 0.635696,0.226928 c 0.734462,0.262185 1.759755,0.817006 2.362391,1.27837 1.153575,0.883151 1.991002,1.887781 2.760507,3.311678 l 0.459651,0.85054 -0.250482,0.09232 c -0.546918,0.20158 -1.606042,0.495581 -2.164471,0.600834 -0.720276,0.135757 -2.222166,0.191397 -2.936564,0.108788 z m 2.086051,-1.995603 0.216153,-0.04323 -0.242873,-0.287953 c -0.636353,-0.754464 -1.920853,-1.644184 -2.926059,-2.02676 -0.268433,-0.102164 -0.833189,-0.254732 -1.255012,-0.33904 l -0.766953,-0.153287 -0.01814,-3.237567 c -0.01374,-2.452484 0.0021,-3.250056 0.06521,-3.289075 0.161282,-0.09968 2.727373,-0.06971 3.652608,0.04266 0.496119,0.06025 0.956671,0.126093 1.02345,0.146312 0.06678,0.02022 0.207969,0.05143 0.313753,0.06935 0.105785,0.01792 0.553153,0.130934 0.99415,0.251132 2.184959,0.595528 4.518282,1.849371 6.14848,3.303968 0.234329,0.209089 0.435535,0.37068 0.447124,0.359092 0.05609,-0.05609 0.785657,-1.383534 0.928725,-1.689805 0.544696,-1.166055 1.003814,-2.679721 1.16182,-3.830404 0.05825,-0.42422 0.117742,-0.840735 0.1322,-0.925588 0.130398,-0.765292 0.193618,-7.802114 0.08976,-9.99041 -0.102671,-2.163195 -0.356392,-3.482117 -0.97912,-5.089774 -0.288121,-0.743822 -0.891008,-1.966602 -1.068384,-2.166901 -0.05361,-0.06054 -0.09748,-0.130061 -0.09748,-0.154489 0,-0.02443 -0.226405,-0.367087 -0.503121,-0.761463 C 38.790321,12.83778 37.087977,11.126568 36.277249,10.602525 35.091526,9.8360915 34.124686,9.4460823 32.885025,9.2341517 30.584796,8.840908 28.275051,9.2875909 26.458173,10.477044 c -1.415766,0.926859 -2.78156,2.282438 -3.745395,3.717384 -1.141293,1.699141 -2.020147,4.12993 -2.279259,6.304115 -0.02285,0.191738 -0.07719,0.599618 -0.120761,0.906399 -0.151754,1.068566 -0.11765,9.23751 0.0441,10.563024 0.202405,1.658676 0.7893,3.501355 1.68772,5.298944 0.8746,1.749928 1.587839,2.713719 2.81165,3.799347 1.382137,1.226076 3.646728,2.35145 5.05697,2.513028 0.228954,0.02623 0.429353,0.05994 0.445332,0.07492 0.04743,0.04444 1.573483,0.03092 1.80816,-0.01601 z" id="path4"/>
  <path style="fill:#eceff4;stroke-width:0.0697229;fill-opacity:1" d="m 45.075878,56.930846 c -0.911374,-0.101076 -3.225615,-0.788977 -4.234961,-1.25883 -1.716429,-0.799002 -3.378402,-2.338753 -4.482407,-4.152768 -0.161358,-0.265132 -0.30314,-0.492915 -0.315071,-0.506185 -0.01193,-0.01327 -0.58082,0.0794 -1.264199,0.205943 l -1.242508,0.230069 -2.649471,0.0032 c -2.865733,0.0035 -3.225631,-0.03037 -5.159497,-0.485419 C 22.18569,50.133388 18.634697,48.369855 15.730508,46.001908 14.780326,45.227171 12.991454,43.4383 12.216718,42.488118 8.7211631,38.20099 6.9099452,33.321646 6.5220322,27.146905 c -0.06933,-1.103579 -0.052167,-1.46405 0.1688187,-3.545691 0.5287969,-4.981166 2.3519707,-9.46558 5.4757301,-13.468512 0.618909,-0.7930985 2.88289,-3.0571731 3.705137,-3.705288 3.491513,-2.7520972 7.482398,-4.4784484 11.878011,-5.1381125 1.253824,-0.1881655 3.78966,-0.2596372 5.159497,-0.1454188 3.3118,0.2761413 5.666896,0.9365174 8.715367,2.4438156 2.21771,1.0965329 4.13416,2.4226631 5.891588,4.0768153 3.509758,3.3035044 5.941673,7.3857034 7.147264,11.9973544 0.967177,3.699663 1.105905,8.069732 0.375166,11.818038 -0.434562,2.229073 -1.169987,4.329403 -2.293229,6.549328 -1.614349,3.190525 -3.681102,5.705621 -6.86769,8.357506 -0.575214,0.478694 -1.055288,0.924212 -1.066832,0.99004 -0.03359,0.191548 1.126573,1.32797 1.798923,1.76211 0.718118,0.463692 1.656949,0.93759 2.395076,1.208973 0.30108,0.110697 0.665673,0.3022 0.810207,0.425563 0.471235,0.40221 0.472566,0.410185 0.528533,3.164726 l 0.05044,2.482624 -0.166486,0.04091 c -0.307377,0.07553 -2.670596,0.390389 -3.234295,0.430911 -1.119353,0.08047 -1.473068,0.08752 -1.917381,0.03825 z m 2.442132,-2.024707 c 1.017501,-0.121236 0.904569,0.06005 0.904569,-1.452104 v -1.310674 l -0.38565,-0.121566 C 47.11619,51.731558 45.470708,50.76359 44.616001,50.009406 43.853594,49.336668 42.947048,48.240511 42.262428,47.163565 L 42.149076,46.985256 43.4556,45.908748 c 3.525124,-2.904517 5.068472,-4.537978 6.584059,-6.968488 1.518069,-2.434493 2.64632,-5.2992 3.154402,-8.009249 0.461494,-2.461559 0.499855,-5.51541 0.103896,-8.271057 C 52.366551,16.177903 48.807503,10.483069 43.402216,6.8257765 40.359832,4.7672571 37.095448,3.5552996 33.467437,3.137323 32.2963,3.0023984 29.782495,3.0017575 28.586404,3.1360785 25.932151,3.4341509 23.383658,4.2033713 20.957219,5.4388217 18.592101,6.6430498 16.892827,7.9084881 14.95557,9.9082101 11.985209,12.974348 9.8491676,17.080544 8.9626933,21.428552 c -0.3840712,1.883803 -0.4501248,2.581517 -0.4532188,4.787272 -0.00243,1.729845 0.020064,2.188172 0.155672,3.172394 0.6307993,4.578247 2.1974325,8.334063 4.8859385,11.713453 0.655939,0.8245 2.773334,2.95078 3.565896,3.58086 1.90399,1.513654 4.31611,2.859862 6.553956,3.657772 2.655313,0.946759 4.231733,1.221737 7.042017,1.228354 1.95818,0.0046 2.638973,-0.05168 4.28796,-0.354585 1.183469,-0.217388 1.526166,-0.224466 1.886959,-0.03897 0.365936,0.188141 0.56604,0.41815 1.006662,1.157104 1.016326,1.70445 2.177468,2.825365 3.660335,3.533525 0.688454,0.328779 2.151853,0.812289 3.032948,1.002093 0.540791,0.116495 2.102649,0.136919 2.930192,0.03832 z" id="path5"/>
  <path style="fill:#eceff4;fill-opacity:1;stroke-width:0.0697229" d="m 44.448372,56.797887 c -1.310012,-0.290407 -3.025254,-0.858331 -3.869623,-1.281249 -1.510061,-0.756342 -3.228084,-2.40478 -4.250707,-4.078542 -0.149197,-0.244195 -0.315526,-0.435626 -0.378348,-0.435445 -0.06166,1.78e-4 -0.629797,0.09664 -1.262533,0.214362 l -1.150429,0.21404 -2.928363,-0.03072 -2.928363,-0.03072 -1.010983,-0.215102 C 22.672846,50.304255 19.087124,48.631881 15.966552,46.162892 15.078698,45.460424 12.767635,43.151731 12.086642,42.286961 8.9629415,38.320278 7.2987073,34.169163 6.691752,28.830434 6.4969321,27.116815 6.4866567,25.824376 6.6549706,24.2041 7.0557969,20.345541 7.910655,17.367032 9.4858485,14.340715 10.940019,11.546912 12.699294,9.3083774 15.24768,7.0092573 c 2.522694,-2.2759419 6.144731,-4.1750672 9.782854,-5.1293968 1.839314,-0.482477 2.900511,-0.6407252 4.876247,-0.7271572 3.484467,-0.152434 6.582221,0.3196193 9.397298,1.4320138 3.506111,1.3854605 6.233751,3.1465241 8.739269,5.64239 4.180191,4.1640869 6.628112,9.3120839 7.293956,15.3392459 0.139779,1.265264 0.119886,4.832664 -0.03382,6.065895 -0.371815,2.983097 -1.157827,5.541064 -2.56022,8.331891 -1.520334,3.025536 -3.414501,5.394574 -6.342646,7.932763 -1.305465,1.131609 -1.603627,1.41736 -1.603627,1.536874 0,0.156244 1.24371,1.343461 1.777935,1.697176 0.542406,0.359132 1.603481,0.903779 2.412023,1.238085 0.561163,0.232024 0.921273,0.463631 1.085566,0.698191 0.146161,0.208675 0.217857,1.112184 0.266583,3.359442 l 0.04326,1.995021 -0.300087,0.04849 c -1.30672,0.211148 -3.058298,0.399921 -3.960541,0.426841 -0.888224,0.0265 -1.186259,0.0088 -1.67335,-0.09913 z m 3.268954,-1.892497 c 0.283193,-0.03676 0.557727,-0.102385 0.610075,-0.14583 0.07406,-0.06146 0.09518,-0.361253 0.09518,-1.350985 v -1.271996 l -0.435768,-0.155931 c -0.621611,-0.222434 -1.646265,-0.770284 -2.455783,-1.31303 -0.745041,-0.499517 -1.57792,-1.27943 -2.21136,-2.070731 -0.445813,-0.556914 -1.10243,-1.497081 -1.10243,-1.578495 0,-0.03004 0.541224,-0.506311 1.202721,-1.058375 3.315401,-2.766928 4.776012,-4.253016 6.111348,-6.217943 2.052345,-3.019996 3.404323,-6.532005 3.878443,-10.074965 0.240248,-1.795298 0.204583,-4.92002 -0.07879,-6.90257 C 52.585124,17.54634 50.168099,12.80808 46.443727,9.2630114 42.811115,5.8052856 38.391658,3.7013432 33.572021,3.1352622 c -1.155143,-0.1356751 -3.935486,-0.1356751 -5.090629,0 -3.939084,0.4626574 -7.897355,2.0689473 -11.001659,4.4645379 -0.904501,0.6980026 -2.69457,2.4086429 -3.424731,3.2727689 -2.704673,3.200907 -4.467879,6.998012 -5.2630903,11.334186 -0.4310872,2.350658 -0.4332277,5.502886 -0.00547,8.061527 0.763997,4.569904 2.6498943,8.57372 5.5106093,11.699185 0.801569,0.875751 2.017219,2.062818 2.662007,2.599416 1.982856,1.65015 4.827826,3.189402 7.49706,4.056236 1.745047,0.566703 2.836296,0.78551 4.548628,0.91205 2.056807,0.151994 3.710332,0.07264 5.938018,-0.284962 1.233763,-0.198052 1.441447,-0.215094 1.695116,-0.139093 0.408918,0.122515 0.75767,0.467219 1.225466,1.211244 1.117344,1.777125 2.138696,2.774884 3.586944,3.504089 0.584438,0.294269 2.285364,0.874312 3.032947,1.034283 0.568379,0.121624 2.4419,0.147496 3.234093,0.04466 z" id="path6"/>
  <path style="fill:#eceff4;fill-opacity:1;stroke-width:0.0697229" d="m 44.796987,56.880865 c -1.147321,-0.212182 -3.106845,-0.842583 -4.078792,-1.312194 -1.595421,-0.770849 -3.091088,-2.135466 -4.202474,-3.834252 -0.250879,-0.383476 -0.464695,-0.708126 -0.475148,-0.721444 -0.01045,-0.01332 -0.582408,0.07586 -1.271014,0.19818 L 33.51755,51.43355 30.563917,51.400887 C 27.335333,51.365184 27.431395,51.375202 25.41401,50.863792 22.026254,50.00499 18.752606,48.376771 15.978426,46.170801 15.100892,45.473005 13.175648,43.592407 12.430651,42.705299 9.4640621,39.17282 7.6571513,35.14876 6.9048825,30.3992 6.6194362,28.596993 6.5574843,27.865666 6.5564083,26.285547 c -0.00303,-4.45415 1.2211725,-9.035745 3.4475617,-12.902514 1.152714,-2.002022 2.084171,-3.222091 3.776428,-4.9465577 2.164071,-2.2052595 3.733821,-3.3700056 6.299808,-4.6744236 3.131509,-1.5919012 6.263092,-2.4371889 9.666904,-2.6093246 3.825023,-0.1934369 7.205167,0.378929 10.374909,1.7568018 4.034231,1.7536623 7.186284,4.1315645 9.802344,7.3948681 3.048032,3.80215 4.824958,8.130493 5.415841,13.192233 0.119446,1.023219 0.119154,4.913424 -4.42e-4,5.891588 -0.386444,3.160681 -1.142425,5.66982 -2.573345,8.541059 -1.550684,3.111552 -3.372042,5.365167 -6.662125,8.243227 -0.719018,0.628975 -1.307305,1.187394 -1.307305,1.240932 0,0.174514 1.205452,1.316956 1.812796,1.71804 0.656737,0.433702 1.138138,0.685993 2.239944,1.1739 0.910739,0.403299 1.219428,0.629365 1.31868,0.96573 0.07747,0.262564 0.260231,5.069313 0.19521,5.134333 -0.0441,0.0441 -1.723508,0.284576 -2.882297,0.412724 -0.820961,0.09079 -2.340539,0.126283 -2.684333,0.0627 z m 2.819314,-1.976848 c 0.342672,-0.03926 0.66427,-0.105591 0.71466,-0.147411 0.06957,-0.05774 0.09162,-0.383083 0.09162,-1.351771 v -1.275733 l -0.366045,-0.119008 c -1.093445,-0.3555 -2.937415,-1.512947 -3.820179,-2.3979 -0.928727,-0.93103 -2.09091,-2.481226 -1.986649,-2.649924 0.02562,-0.04146 0.507275,-0.458953 1.070336,-0.927762 2.381635,-1.982968 3.692516,-3.199395 4.714773,-4.375053 2.495206,-2.86964 4.330413,-6.642217 5.121529,-10.528164 0.302524,-1.485994 0.380274,-2.395329 0.384515,-4.497129 0.0043,-2.13621 -0.05419,-2.916166 -0.347113,-4.628044 C 52.387046,17.291707 50.18158,13.018831 46.819281,9.656207 43.016314,5.8528741 38.315253,3.6042299 33.102842,3.0952651 31.995786,2.9871668 28.891212,3.0526563 27.924036,3.2045096 24.428189,3.7533814 21.254875,4.9997362 18.406855,6.9424889 16.48961,8.2503214 14.545508,10.14316 13.050634,12.157474 c -1.485242,2.001334 -2.823357,4.702353 -3.5714442,7.209051 -0.3351159,1.122908 -0.7519421,3.06859 -0.8698618,4.060382 -0.1259077,1.058976 -0.1655484,3.598545 -0.073867,4.732283 0.3935123,4.866202 2.105916,9.302021 4.979033,12.897711 0.742067,0.928693 2.904571,3.086812 3.741933,3.734345 1.898431,1.46806 4.014236,2.6507 6.249285,3.493067 3.704828,1.396311 7.047112,1.650767 11.818767,0.899791 1.547132,-0.243492 1.687129,-0.170493 2.748071,1.432936 1.243102,1.878733 2.337687,2.821542 4.061459,3.498294 0.692446,0.271854 2.042904,0.68374 2.558393,0.780303 0.48032,0.08997 2.169388,0.09481 2.923899,0.0084 z" id="path7"/>
  <path style="fill:#eceff4;fill-opacity:1;stroke-width:0.0697229" d="m 44.762125,56.886661 c -0.0767,-0.01982 -0.406136,-0.09987 -0.732091,-0.177893 -1.841173,-0.440713 -3.658565,-1.19375 -4.637561,-1.921578 -1.335161,-0.992617 -2.139844,-1.89814 -3.351367,-3.771352 -0.0076,-0.01174 -0.574187,0.07721 -1.259092,0.197664 l -1.245282,0.219015 -2.963224,-0.03364 c -3.129866,-0.03553 -3.173849,-0.03944 -4.756614,-0.422809 -3.543827,-0.858371 -6.961839,-2.520303 -9.81548,-4.772561 -1.114012,-0.879243 -3.49184,-3.317103 -4.330146,-4.43947 C 8.953065,38.124774 7.4791152,34.493464 6.8035693,29.771694 6.3924901,26.89843 6.4374606,24.824585 6.9789418,21.684261 7.6081742,18.035024 9.1861752,14.288964 11.398404,11.192779 12.201814,10.068345 12.86534,9.3211095 14.358516,7.859222 15.744254,6.5025224 16.759488,5.6976074 18.216048,4.8008295 23.03728,1.8324822 28.328844,0.64045861 33.920209,1.2631745 36.51,1.5516021 38.692613,2.1951956 41.21613,3.4145437 c 2.802639,1.3542189 4.735241,2.7190647 6.860199,4.8448249 4.07541,4.0769484 6.44835,8.9555274 7.225774,14.8556244 0.156449,1.187335 0.179101,5.358076 0.03483,6.412671 -0.443849,3.244432 -1.13718,5.524959 -2.529175,8.319045 -1.604713,3.221063 -3.378383,5.423737 -6.726267,8.353172 -0.706476,0.618174 -1.284503,1.153565 -1.284503,1.189756 0,0.127086 0.59833,0.765245 1.153496,1.23028 0.700345,0.586645 1.420221,1.010895 2.684381,1.582005 1.195151,0.539934 1.430557,0.707063 1.533288,1.088577 0.08106,0.301029 0.199631,2.773148 0.204042,4.254094 l 0.0026,0.881809 -0.435769,0.07544 c -1.213565,0.210099 -2.722745,0.364801 -3.817331,0.391306 -0.671083,0.01625 -1.282902,0.01333 -1.359597,-0.0065 z m 2.788918,-1.98723 c 0.345128,-0.04219 0.682413,-0.105957 0.749521,-0.141703 0.109411,-0.05828 0.122015,-0.197155 0.122015,-1.344386 v -1.279396 l -0.360357,-0.117867 c -0.573173,-0.187476 -1.645097,-0.752107 -2.469724,-1.300916 -1.115677,-0.74251 -2.429479,-2.123387 -3.169164,-3.330962 l -0.23032,-0.37601 0.275223,-0.251496 c 0.151373,-0.138323 0.85384,-0.737814 1.561039,-1.332202 2.302835,-1.935492 3.463817,-3.067293 4.601402,-4.485744 2.029435,-2.530495 3.688465,-6.03044 4.417545,-9.319397 0.811196,-3.659397 0.665511,-8.225815 -0.381487,-11.957484 C 50.125968,10.606169 42.255004,3.95803 33.055533,3.0974415 31.937076,2.9928126 29.015173,3.0523933 28.02862,3.1999456 23.982463,3.8051032 20.223328,5.418665 17.169866,7.8609309 c -0.929014,0.743058 -2.797952,2.6112971 -3.526374,3.5250571 -2.608559,3.272272 -4.3029195,7.24534 -4.9714507,11.657443 -0.2107633,1.390973 -0.2312728,4.622218 -0.038723,6.100756 0.576327,4.425461 2.0327927,8.12178 4.4918377,11.399701 1.103632,1.471147 3.26475,3.62563 4.64785,4.633582 2.05976,1.501075 4.179653,2.590009 6.59516,3.387763 2.352446,0.776926 3.74139,0.996022 6.344788,1.000846 1.854406,0.0034 2.540229,-0.05147 4.292944,-0.343679 1.243426,-0.207302 1.491209,-0.212585 1.828021,-0.03898 0.361878,0.186527 0.614934,0.477341 1.218722,1.400568 1.035991,1.584091 2.06342,2.567661 3.375156,3.231076 0.664556,0.336103 2.791031,1.016494 3.473774,1.111477 0.447447,0.06225 2.052884,0.04582 2.649472,-0.02711 z" id="path8"/>
</svg>